<svg xmlns="http://www.w3.org/2000/svg" width="1600" height="980" viewBox="0 0 1600 980">
<defs><style>.t{font:700 37px Arial;fill:#1f2937}.n{fill:#dbeafe;stroke:#2563eb;stroke-width:2.3;rx:12}.d{fill:#e0f2fe;stroke:#0891b2;stroke-width:2.3}.txt{font:600 18px Arial;fill:#111827}.arr{stroke:#334155;stroke-width:2.3;fill:none;marker-end:url(#a)}</style><marker id="a" markerWidth="10" markerHeight="7" refX="9" refY="3.5" orient="auto"><polygon points="0 0,10 3.5,0 7" fill="#334155"/></marker></defs>
<text x="800" y="45" text-anchor="middle" class="t">Activity Diagram 1: Donor Appointment Booking</text>
<circle cx="800" cy="90" r="16" fill="#111827"/>
<rect x="670" y="130" width="260" height="52" class="n"/><text x="800" y="162" text-anchor="middle" class="txt">Login as Donor</text>
<rect x="620" y="210" width="360" height="52" class="n"/><text x="800" y="242" text-anchor="middle" class="txt">Open Book Appointment Page</text>
<rect x="560" y="290" width="480" height="52" class="n"/><text x="800" y="322" text-anchor="middle" class="txt">Choose Bank, Date, and Time Slot</text>
<polygon points="800,370 900,430 800,490 700,430" class="d"/><text x="800" y="436" text-anchor="middle" class="txt">Input Valid?</text>
<rect x="980" y="404" width="300" height="52" class="n"/><text x="1130" y="436" text-anchor="middle" class="txt">Show Validation Error</text>
<rect x="540" y="520" width="520" height="52" class="n"/><text x="800" y="552" text-anchor="middle" class="txt">Check Eligibility and Conflict</text>
<polygon points="800,600 930,670 800,740 670,670" class="d"/><text x="800" y="676" text-anchor="middle" class="txt">Eligible and No Conflict?</text>
<rect x="980" y="644" width="350" height="52" class="n"/><text x="1155" y="676" text-anchor="middle" class="txt">Show Booking Denied Message</text>
<rect x="480" y="770" width="640" height="52" class="n"/><text x="800" y="802" text-anchor="middle" class="txt">Create Appointment with Pending Status</text>
<rect x="610" y="850" width="380" height="52" class="n"/><text x="800" y="882" text-anchor="middle" class="txt">Show Success Confirmation</text>
<circle cx="800" cy="940" r="16" fill="#111827"/>
<line x1="800" y1="106" x2="800" y2="130" class="arr"/>
<line x1="800" y1="182" x2="800" y2="210" class="arr"/>
<line x1="800" y1="262" x2="800" y2="290" class="arr"/>
<line x1="800" y1="342" x2="800" y2="370" class="arr"/>
<line x1="900" y1="430" x2="980" y2="430" class="arr"/>
<text x="935" y="420" class="txt">No</text>
<path d="M1280 430 L1360 430 L1360 316 L1040 316" class="arr"/>
<line x1="800" y1="490" x2="800" y2="520" class="arr"/>
<text x="814" y="510" class="txt">Yes</text>
<line x1="800" y1="572" x2="800" y2="600" class="arr"/>
<line x1="930" y1="670" x2="980" y2="670" class="arr"/>
<text x="945" y="660" class="txt">No</text>
<line x1="800" y1="740" x2="800" y2="770" class="arr"/>
<text x="814" y="760" class="txt">Yes</text>
<line x1="800" y1="822" x2="800" y2="850" class="arr"/>
<line x1="800" y1="902" x2="800" y2="924" class="arr"/>
<line x1="1330" y1="670" x2="1470" y2="670" class="arr"/>
<line x1="1470" y1="670" x2="1470" y2="940" class="arr"/>
<line x1="1470" y1="940" x2="816" y2="940" class="arr"/>
</svg>